<?xml version="1.0" encoding="UTF-8" standalone="no"?>
<!DOCTYPE svg PUBLIC "-//W3C//DTD SVG 1.1//EN"
 "http://www.w3.org/Graphics/SVG/1.1/DTD/svg11.dtd">
<!-- Generated by graphviz version 2.40.1 (20161225.0304)
 -->
<!-- Title: controllers_diagram Pages: 1 -->
<svg width="634pt" height="636pt"
 viewBox="0.00 0.00 634.00 636.00" xmlns="http://www.w3.org/2000/svg" xmlns:xlink="http://www.w3.org/1999/xlink">
<g id="graph0" class="graph" transform="scale(1 1) rotate(0) translate(4 632)">
<title>controllers_diagram</title>
<polygon fill="transparent" stroke="transparent" points="-4,4 -4,-632 630,-632 630,4 -4,4"/>
<!-- _diagram_info -->
<g id="node1" class="node">
<title>_diagram_info</title>
<text text-anchor="start" x="242" y="-117.6" font-family="Times,serif" font-size="13.00" fill="#000000">Controllers diagram</text>
<text text-anchor="start" x="242" y="-103.6" font-family="Times,serif" font-size="13.00" fill="#000000">Date: Nov 03 2018 &#45; 20:28</text>
<text text-anchor="start" x="242" y="-89.6" font-family="Times,serif" font-size="13.00" fill="#000000">Migration version: 20181104001508</text>
<text text-anchor="start" x="242" y="-75.6" font-family="Times,serif" font-size="13.00" fill="#000000">Generated by RailRoady 1.5.3</text>
<text text-anchor="start" x="242" y="-61.6" font-family="Times,serif" font-size="13.00" fill="#000000">http://railroady.prestonlee.com</text>
</g>
<!-- ComentariosController -->
<g id="node2" class="node">
<title>ComentariosController</title>
<path fill="none" stroke="#000000" d="M354,-162.5C354,-162.5 472,-162.5 472,-162.5 478,-162.5 484,-168.5 484,-174.5 484,-174.5 484,-363.5 484,-363.5 484,-369.5 478,-375.5 472,-375.5 472,-375.5 354,-375.5 354,-375.5 348,-375.5 342,-369.5 342,-363.5 342,-363.5 342,-174.5 342,-174.5 342,-168.5 348,-162.5 354,-162.5"/>
<text text-anchor="middle" x="413" y="-360.3" font-family="Times,serif" font-size="14.00" fill="#000000">ComentariosController</text>
<polyline fill="none" stroke="#000000" points="342,-352.5 484,-352.5 "/>
<text text-anchor="start" x="350" y="-337.3" font-family="Times,serif" font-size="14.00" fill="#000000">create</text>
<text text-anchor="start" x="350" y="-322.3" font-family="Times,serif" font-size="14.00" fill="#000000">destroy</text>
<text text-anchor="start" x="350" y="-307.3" font-family="Times,serif" font-size="14.00" fill="#000000">edit</text>
<text text-anchor="start" x="350" y="-292.3" font-family="Times,serif" font-size="14.00" fill="#000000">index</text>
<text text-anchor="start" x="350" y="-277.3" font-family="Times,serif" font-size="14.00" fill="#000000">new</text>
<text text-anchor="start" x="350" y="-262.3" font-family="Times,serif" font-size="14.00" fill="#000000">show</text>
<text text-anchor="start" x="350" y="-247.3" font-family="Times,serif" font-size="14.00" fill="#000000">update</text>
<polyline fill="none" stroke="#000000" points="342,-239.5 484,-239.5 "/>
<polyline fill="none" stroke="#000000" points="342,-215.5 484,-215.5 "/>
<text text-anchor="start" x="350" y="-200.3" font-family="Times,serif" font-size="14.00" fill="#000000">_layout</text>
<text text-anchor="start" x="350" y="-185.3" font-family="Times,serif" font-size="14.00" fill="#000000">comentario_params</text>
<text text-anchor="start" x="350" y="-170.3" font-family="Times,serif" font-size="14.00" fill="#000000">set_comentario</text>
</g>
<!-- PqrsController -->
<g id="node3" class="node">
<title>PqrsController</title>
<path fill="none" stroke="#000000" d="M102,-414.5C102,-414.5 174,-414.5 174,-414.5 180,-414.5 186,-420.5 186,-426.5 186,-426.5 186,-615.5 186,-615.5 186,-621.5 180,-627.5 174,-627.5 174,-627.5 102,-627.5 102,-627.5 96,-627.5 90,-621.5 90,-615.5 90,-615.5 90,-426.5 90,-426.5 90,-420.5 96,-414.5 102,-414.5"/>
<text text-anchor="middle" x="138" y="-612.3" font-family="Times,serif" font-size="14.00" fill="#000000">PqrsController</text>
<polyline fill="none" stroke="#000000" points="90,-604.5 186,-604.5 "/>
<text text-anchor="start" x="98" y="-589.3" font-family="Times,serif" font-size="14.00" fill="#000000">create</text>
<text text-anchor="start" x="98" y="-574.3" font-family="Times,serif" font-size="14.00" fill="#000000">destroy</text>
<text text-anchor="start" x="98" y="-559.3" font-family="Times,serif" font-size="14.00" fill="#000000">edit</text>
<text text-anchor="start" x="98" y="-544.3" font-family="Times,serif" font-size="14.00" fill="#000000">index</text>
<text text-anchor="start" x="98" y="-529.3" font-family="Times,serif" font-size="14.00" fill="#000000">new</text>
<text text-anchor="start" x="98" y="-514.3" font-family="Times,serif" font-size="14.00" fill="#000000">show</text>
<text text-anchor="start" x="98" y="-499.3" font-family="Times,serif" font-size="14.00" fill="#000000">update</text>
<polyline fill="none" stroke="#000000" points="90,-491.5 186,-491.5 "/>
<polyline fill="none" stroke="#000000" points="90,-467.5 186,-467.5 "/>
<text text-anchor="start" x="98" y="-452.3" font-family="Times,serif" font-size="14.00" fill="#000000">_layout</text>
<text text-anchor="start" x="98" y="-437.3" font-family="Times,serif" font-size="14.00" fill="#000000">pqr_params</text>
<text text-anchor="start" x="98" y="-422.3" font-family="Times,serif" font-size="14.00" fill="#000000">set_pqr</text>
</g>
<!-- ApplicationController -->
<g id="node4" class="node">
<title>ApplicationController</title>
<path fill="none" stroke="#000000" d="M12,-36.5C12,-36.5 124,-36.5 124,-36.5 130,-36.5 136,-42.5 136,-48.5 136,-48.5 136,-117.5 136,-117.5 136,-123.5 130,-129.5 124,-129.5 124,-129.5 12,-129.5 12,-129.5 6,-129.5 0,-123.5 0,-117.5 0,-117.5 0,-48.5 0,-48.5 0,-42.5 6,-36.5 12,-36.5"/>
<text text-anchor="middle" x="68" y="-114.3" font-family="Times,serif" font-size="14.00" fill="#000000">ApplicationController</text>
<polyline fill="none" stroke="#000000" points="0,-106.5 136,-106.5 "/>
<text text-anchor="start" x="8" y="-91.3" font-family="Times,serif" font-size="14.00" fill="#000000">usuario_actual</text>
<polyline fill="none" stroke="#000000" points="0,-83.5 136,-83.5 "/>
<polyline fill="none" stroke="#000000" points="0,-59.5 136,-59.5 "/>
<text text-anchor="start" x="8" y="-44.3" font-family="Times,serif" font-size="14.00" fill="#000000">_layout</text>
</g>
<!-- UsuariosController -->
<g id="node5" class="node">
<title>UsuariosController</title>
<path fill="none" stroke="#000000" d="M228,-414.5C228,-414.5 324,-414.5 324,-414.5 330,-414.5 336,-420.5 336,-426.5 336,-426.5 336,-615.5 336,-615.5 336,-621.5 330,-627.5 324,-627.5 324,-627.5 228,-627.5 228,-627.5 222,-627.5 216,-621.5 216,-615.5 216,-615.5 216,-426.5 216,-426.5 216,-420.5 222,-414.5 228,-414.5"/>
<text text-anchor="middle" x="276" y="-612.3" font-family="Times,serif" font-size="14.00" fill="#000000">UsuariosController</text>
<polyline fill="none" stroke="#000000" points="216,-604.5 336,-604.5 "/>
<text text-anchor="start" x="224" y="-589.3" font-family="Times,serif" font-size="14.00" fill="#000000">create</text>
<text text-anchor="start" x="224" y="-574.3" font-family="Times,serif" font-size="14.00" fill="#000000">destroy</text>
<text text-anchor="start" x="224" y="-559.3" font-family="Times,serif" font-size="14.00" fill="#000000">edit</text>
<text text-anchor="start" x="224" y="-544.3" font-family="Times,serif" font-size="14.00" fill="#000000">index</text>
<text text-anchor="start" x="224" y="-529.3" font-family="Times,serif" font-size="14.00" fill="#000000">new</text>
<text text-anchor="start" x="224" y="-514.3" font-family="Times,serif" font-size="14.00" fill="#000000">show</text>
<text text-anchor="start" x="224" y="-499.3" font-family="Times,serif" font-size="14.00" fill="#000000">update</text>
<polyline fill="none" stroke="#000000" points="216,-491.5 336,-491.5 "/>
<polyline fill="none" stroke="#000000" points="216,-467.5 336,-467.5 "/>
<text text-anchor="start" x="224" y="-452.3" font-family="Times,serif" font-size="14.00" fill="#000000">_layout</text>
<text text-anchor="start" x="224" y="-437.3" font-family="Times,serif" font-size="14.00" fill="#000000">set_usuario</text>
<text text-anchor="start" x="224" y="-422.3" font-family="Times,serif" font-size="14.00" fill="#000000">usuario_params</text>
</g>
<!-- InicioController -->
<g id="node6" class="node">
<title>InicioController</title>
<path fill="none" stroke="#000000" d="M534,-162.5C534,-162.5 614,-162.5 614,-162.5 620,-162.5 626,-168.5 626,-174.5 626,-174.5 626,-243.5 626,-243.5 626,-249.5 620,-255.5 614,-255.5 614,-255.5 534,-255.5 534,-255.5 528,-255.5 522,-249.5 522,-243.5 522,-243.5 522,-174.5 522,-174.5 522,-168.5 528,-162.5 534,-162.5"/>
<text text-anchor="middle" x="574" y="-240.3" font-family="Times,serif" font-size="14.00" fill="#000000">InicioController</text>
<polyline fill="none" stroke="#000000" points="522,-232.5 626,-232.5 "/>
<text text-anchor="start" x="530" y="-217.3" font-family="Times,serif" font-size="14.00" fill="#000000">index</text>
<polyline fill="none" stroke="#000000" points="522,-209.5 626,-209.5 "/>
<polyline fill="none" stroke="#000000" points="522,-185.5 626,-185.5 "/>
<text text-anchor="start" x="530" y="-170.3" font-family="Times,serif" font-size="14.00" fill="#000000">_layout</text>
</g>
<!-- RolsController -->
<g id="node7" class="node">
<title>RolsController</title>
<path fill="none" stroke="#000000" d="M30,-162.5C30,-162.5 103,-162.5 103,-162.5 109,-162.5 115,-168.5 115,-174.5 115,-174.5 115,-363.5 115,-363.5 115,-369.5 109,-375.5 103,-375.5 103,-375.5 30,-375.5 30,-375.5 24,-375.5 18,-369.5 18,-363.5 18,-363.5 18,-174.5 18,-174.5 18,-168.5 24,-162.5 30,-162.5"/>
<text text-anchor="middle" x="66.5" y="-360.3" font-family="Times,serif" font-size="14.00" fill="#000000">RolsController</text>
<polyline fill="none" stroke="#000000" points="18,-352.5 115,-352.5 "/>
<text text-anchor="start" x="26" y="-337.3" font-family="Times,serif" font-size="14.00" fill="#000000">create</text>
<text text-anchor="start" x="26" y="-322.3" font-family="Times,serif" font-size="14.00" fill="#000000">destroy</text>
<text text-anchor="start" x="26" y="-307.3" font-family="Times,serif" font-size="14.00" fill="#000000">edit</text>
<text text-anchor="start" x="26" y="-292.3" font-family="Times,serif" font-size="14.00" fill="#000000">index</text>
<text text-anchor="start" x="26" y="-277.3" font-family="Times,serif" font-size="14.00" fill="#000000">new</text>
<text text-anchor="start" x="26" y="-262.3" font-family="Times,serif" font-size="14.00" fill="#000000">show</text>
<text text-anchor="start" x="26" y="-247.3" font-family="Times,serif" font-size="14.00" fill="#000000">update</text>
<polyline fill="none" stroke="#000000" points="18,-239.5 115,-239.5 "/>
<polyline fill="none" stroke="#000000" points="18,-215.5 115,-215.5 "/>
<text text-anchor="start" x="26" y="-200.3" font-family="Times,serif" font-size="14.00" fill="#000000">_layout</text>
<text text-anchor="start" x="26" y="-185.3" font-family="Times,serif" font-size="14.00" fill="#000000">rol_params</text>
<text text-anchor="start" x="26" y="-170.3" font-family="Times,serif" font-size="14.00" fill="#000000">set_rol</text>
</g>
<!-- TipodocumentosController -->
<g id="node8" class="node">
<title>TipodocumentosController</title>
<path fill="none" stroke="#000000" d="M156,-162.5C156,-162.5 296,-162.5 296,-162.5 302,-162.5 308,-168.5 308,-174.5 308,-174.5 308,-363.5 308,-363.5 308,-369.5 302,-375.5 296,-375.5 296,-375.5 156,-375.5 156,-375.5 150,-375.5 144,-369.5 144,-363.5 144,-363.5 144,-174.5 144,-174.5 144,-168.5 150,-162.5 156,-162.5"/>
<text text-anchor="middle" x="226" y="-360.3" font-family="Times,serif" font-size="14.00" fill="#000000">TipodocumentosController</text>
<polyline fill="none" stroke="#000000" points="144,-352.5 308,-352.5 "/>
<text text-anchor="start" x="152" y="-337.3" font-family="Times,serif" font-size="14.00" fill="#000000">create</text>
<text text-anchor="start" x="152" y="-322.3" font-family="Times,serif" font-size="14.00" fill="#000000">destroy</text>
<text text-anchor="start" x="152" y="-307.3" font-family="Times,serif" font-size="14.00" fill="#000000">edit</text>
<text text-anchor="start" x="152" y="-292.3" font-family="Times,serif" font-size="14.00" fill="#000000">index</text>
<text text-anchor="start" x="152" y="-277.3" font-family="Times,serif" font-size="14.00" fill="#000000">new</text>
<text text-anchor="start" x="152" y="-262.3" font-family="Times,serif" font-size="14.00" fill="#000000">show</text>
<text text-anchor="start" x="152" y="-247.3" font-family="Times,serif" font-size="14.00" fill="#000000">update</text>
<polyline fill="none" stroke="#000000" points="144,-239.5 308,-239.5 "/>
<polyline fill="none" stroke="#000000" points="144,-215.5 308,-215.5 "/>
<text text-anchor="start" x="152" y="-200.3" font-family="Times,serif" font-size="14.00" fill="#000000">_layout</text>
<text text-anchor="start" x="152" y="-185.3" font-family="Times,serif" font-size="14.00" fill="#000000">set_tipodocumento</text>
<text text-anchor="start" x="152" y="-170.3" font-family="Times,serif" font-size="14.00" fill="#000000">tipodocumento_params</text>
</g>
<!-- SessionsController -->
<g id="node9" class="node">
<title>SessionsController</title>
<path fill="none" stroke="#000000" d="M498,-.5C498,-.5 593,-.5 593,-.5 599,-.5 605,-6.5 605,-12.5 605,-12.5 605,-111.5 605,-111.5 605,-117.5 599,-123.5 593,-123.5 593,-123.5 498,-123.5 498,-123.5 492,-123.5 486,-117.5 486,-111.5 486,-111.5 486,-12.5 486,-12.5 486,-6.5 492,-.5 498,-.5"/>
<text text-anchor="middle" x="545.5" y="-108.3" font-family="Times,serif" font-size="14.00" fill="#000000">SessionsController</text>
<polyline fill="none" stroke="#000000" points="486,-100.5 605,-100.5 "/>
<text text-anchor="start" x="494" y="-85.3" font-family="Times,serif" font-size="14.00" fill="#000000">create</text>
<text text-anchor="start" x="494" y="-70.3" font-family="Times,serif" font-size="14.00" fill="#000000">destroy</text>
<text text-anchor="start" x="494" y="-55.3" font-family="Times,serif" font-size="14.00" fill="#000000">new</text>
<polyline fill="none" stroke="#000000" points="486,-47.5 605,-47.5 "/>
<polyline fill="none" stroke="#000000" points="486,-23.5 605,-23.5 "/>
<text text-anchor="start" x="494" y="-8.3" font-family="Times,serif" font-size="14.00" fill="#000000">_layout</text>
</g>
<!-- DependenciaController -->
<g id="node10" class="node">
<title>DependenciaController</title>
<path fill="none" stroke="#000000" d="M390,-414.5C390,-414.5 509,-414.5 509,-414.5 515,-414.5 521,-420.5 521,-426.5 521,-426.5 521,-615.5 521,-615.5 521,-621.5 515,-627.5 509,-627.5 509,-627.5 390,-627.5 390,-627.5 384,-627.5 378,-621.5 378,-615.5 378,-615.5 378,-426.5 378,-426.5 378,-420.5 384,-414.5 390,-414.5"/>
<text text-anchor="middle" x="449.5" y="-612.3" font-family="Times,serif" font-size="14.00" fill="#000000">DependenciaController</text>
<polyline fill="none" stroke="#000000" points="378,-604.5 521,-604.5 "/>
<text text-anchor="start" x="386" y="-589.3" font-family="Times,serif" font-size="14.00" fill="#000000">create</text>
<text text-anchor="start" x="386" y="-574.3" font-family="Times,serif" font-size="14.00" fill="#000000">destroy</text>
<text text-anchor="start" x="386" y="-559.3" font-family="Times,serif" font-size="14.00" fill="#000000">edit</text>
<text text-anchor="start" x="386" y="-544.3" font-family="Times,serif" font-size="14.00" fill="#000000">index</text>
<text text-anchor="start" x="386" y="-529.3" font-family="Times,serif" font-size="14.00" fill="#000000">new</text>
<text text-anchor="start" x="386" y="-514.3" font-family="Times,serif" font-size="14.00" fill="#000000">show</text>
<text text-anchor="start" x="386" y="-499.3" font-family="Times,serif" font-size="14.00" fill="#000000">update</text>
<polyline fill="none" stroke="#000000" points="378,-491.5 521,-491.5 "/>
<polyline fill="none" stroke="#000000" points="378,-467.5 521,-467.5 "/>
<text text-anchor="start" x="386" y="-452.3" font-family="Times,serif" font-size="14.00" fill="#000000">_layout</text>
<text text-anchor="start" x="386" y="-437.3" font-family="Times,serif" font-size="14.00" fill="#000000">dependencium_params</text>
<text text-anchor="start" x="386" y="-422.3" font-family="Times,serif" font-size="14.00" fill="#000000">set_dependencium</text>
</g>
</g>
</svg>
