<?xml version="1.0" encoding="UTF-8" standalone="no"?>
<!DOCTYPE svg PUBLIC "-//W3C//DTD SVG 1.1//EN"
 "http://www.w3.org/Graphics/SVG/1.1/DTD/svg11.dtd">
<!-- Generated by graphviz version 2.40.1 (20161225.0304)
 -->
<!-- Title: models_diagram Pages: 1 -->
<svg width="1348pt" height="205pt"
 viewBox="0.00 0.00 1347.50 205.00" xmlns="http://www.w3.org/2000/svg" xmlns:xlink="http://www.w3.org/1999/xlink">
<g id="graph0" class="graph" transform="scale(1 1) rotate(0) translate(4 201)">
<title>models_diagram</title>
<polygon fill="transparent" stroke="transparent" points="-4,4 -4,-201 1343.5,-201 1343.5,4 -4,4"/>
<!-- _diagram_info -->
<g id="node1" class="node">
<title>_diagram_info</title>
<text text-anchor="start" x="8" y="-123.1" font-family="Times,serif" font-size="13.00" fill="#000000">Models diagram</text>
<text text-anchor="start" x="8" y="-109.1" font-family="Times,serif" font-size="13.00" fill="#000000">Date: Nov 03 2018 &#45; 20:28</text>
<text text-anchor="start" x="8" y="-95.1" font-family="Times,serif" font-size="13.00" fill="#000000">Migration version: 20181104001508</text>
<text text-anchor="start" x="8" y="-81.1" font-family="Times,serif" font-size="13.00" fill="#000000">Generated by RailRoady 1.5.3</text>
<text text-anchor="start" x="8" y="-67.1" font-family="Times,serif" font-size="13.00" fill="#000000">http://railroady.prestonlee.com</text>
</g>
<!-- Tipodocumento -->
<g id="node2" class="node">
<title>Tipodocumento</title>
<path fill="none" stroke="#000000" d="M244.5,-53C244.5,-53 351.5,-53 351.5,-53 357.5,-53 363.5,-59 363.5,-65 363.5,-65 363.5,-132 363.5,-132 363.5,-138 357.5,-144 351.5,-144 351.5,-144 244.5,-144 244.5,-144 238.5,-144 232.5,-138 232.5,-132 232.5,-132 232.5,-65 232.5,-65 232.5,-59 238.5,-53 244.5,-53"/>
<text text-anchor="middle" x="298" y="-128.8" font-family="Times,serif" font-size="14.00" fill="#000000">Tipodocumento</text>
<polyline fill="none" stroke="#000000" points="232.5,-121 363.5,-121 "/>
<text text-anchor="start" x="240.5" y="-105.8" font-family="Times,serif" font-size="14.00" fill="#000000">id :integer</text>
<text text-anchor="start" x="240.5" y="-90.8" font-family="Times,serif" font-size="14.00" fill="#000000">descripcion :varchar</text>
<text text-anchor="start" x="240.5" y="-75.8" font-family="Times,serif" font-size="14.00" fill="#000000">created_at :datetime</text>
<text text-anchor="start" x="240.5" y="-60.8" font-family="Times,serif" font-size="14.00" fill="#000000">updated_at :datetime</text>
</g>
<!-- Pqr -->
<g id="node3" class="node">
<title>Pqr</title>
<path fill="none" stroke="#000000" d="M394,-8C394,-8 528,-8 528,-8 534,-8 540,-14 540,-20 540,-20 540,-177 540,-177 540,-183 534,-189 528,-189 528,-189 394,-189 394,-189 388,-189 382,-183 382,-177 382,-177 382,-20 382,-20 382,-14 388,-8 394,-8"/>
<text text-anchor="middle" x="461" y="-173.8" font-family="Times,serif" font-size="14.00" fill="#000000">Pqr</text>
<polyline fill="none" stroke="#000000" points="382,-166 540,-166 "/>
<text text-anchor="start" x="390" y="-150.8" font-family="Times,serif" font-size="14.00" fill="#000000">id :integer</text>
<text text-anchor="start" x="390" y="-135.8" font-family="Times,serif" font-size="14.00" fill="#000000">fecha :datetime</text>
<text text-anchor="start" x="390" y="-120.8" font-family="Times,serif" font-size="14.00" fill="#000000">descripcion :varchar</text>
<text text-anchor="start" x="390" y="-105.8" font-family="Times,serif" font-size="14.00" fill="#000000">archivo :varchar</text>
<text text-anchor="start" x="390" y="-90.8" font-family="Times,serif" font-size="14.00" fill="#000000">estado :boolean</text>
<text text-anchor="start" x="390" y="-75.8" font-family="Times,serif" font-size="14.00" fill="#000000">usuario_id :integer</text>
<text text-anchor="start" x="390" y="-60.8" font-family="Times,serif" font-size="14.00" fill="#000000">dependencium_id :integer</text>
<text text-anchor="start" x="390" y="-45.8" font-family="Times,serif" font-size="14.00" fill="#000000">respuesta :varchar</text>
<text text-anchor="start" x="390" y="-30.8" font-family="Times,serif" font-size="14.00" fill="#000000">created_at :datetime</text>
<text text-anchor="start" x="390" y="-15.8" font-family="Times,serif" font-size="14.00" fill="#000000">updated_at :datetime</text>
</g>
<!-- Usuario -->
<g id="node4" class="node">
<title>Usuario</title>
<path fill="none" stroke="#000000" d="M570.5,-.5C570.5,-.5 707.5,-.5 707.5,-.5 713.5,-.5 719.5,-6.5 719.5,-12.5 719.5,-12.5 719.5,-184.5 719.5,-184.5 719.5,-190.5 713.5,-196.5 707.5,-196.5 707.5,-196.5 570.5,-196.5 570.5,-196.5 564.5,-196.5 558.5,-190.5 558.5,-184.5 558.5,-184.5 558.5,-12.5 558.5,-12.5 558.5,-6.5 564.5,-.5 570.5,-.5"/>
<text text-anchor="middle" x="639" y="-181.3" font-family="Times,serif" font-size="14.00" fill="#000000">Usuario</text>
<polyline fill="none" stroke="#000000" points="558.5,-173.5 719.5,-173.5 "/>
<text text-anchor="start" x="566.5" y="-158.3" font-family="Times,serif" font-size="14.00" fill="#000000">id :integer</text>
<text text-anchor="start" x="566.5" y="-143.3" font-family="Times,serif" font-size="14.00" fill="#000000">nombre :varchar</text>
<text text-anchor="start" x="566.5" y="-128.3" font-family="Times,serif" font-size="14.00" fill="#000000">apellido :varchar</text>
<text text-anchor="start" x="566.5" y="-113.3" font-family="Times,serif" font-size="14.00" fill="#000000">celular :varchar</text>
<text text-anchor="start" x="566.5" y="-98.3" font-family="Times,serif" font-size="14.00" fill="#000000">rol_id :integer</text>
<text text-anchor="start" x="566.5" y="-83.3" font-family="Times,serif" font-size="14.00" fill="#000000">dependencium_id :integer</text>
<text text-anchor="start" x="566.5" y="-68.3" font-family="Times,serif" font-size="14.00" fill="#000000">email :varchar</text>
<text text-anchor="start" x="566.5" y="-53.3" font-family="Times,serif" font-size="14.00" fill="#000000">tipodocumento_id :integer</text>
<text text-anchor="start" x="566.5" y="-38.3" font-family="Times,serif" font-size="14.00" fill="#000000">password_digest :varchar</text>
<text text-anchor="start" x="566.5" y="-23.3" font-family="Times,serif" font-size="14.00" fill="#000000">created_at :datetime</text>
<text text-anchor="start" x="566.5" y="-8.3" font-family="Times,serif" font-size="14.00" fill="#000000">updated_at :datetime</text>
</g>
<!-- ApplicationRecord -->
<g id="node5" class="node">
<title>ApplicationRecord</title>
<ellipse fill="none" stroke="#000000" cx="815" cy="-98.5" rx="77.1866" ry="18"/>
<text text-anchor="middle" x="815" y="-94.8" font-family="Times,serif" font-size="14.00" fill="#000000">ApplicationRecord</text>
</g>
<!-- Rol -->
<g id="node6" class="node">
<title>Rol</title>
<path fill="none" stroke="#000000" d="M922.5,-53C922.5,-53 1029.5,-53 1029.5,-53 1035.5,-53 1041.5,-59 1041.5,-65 1041.5,-65 1041.5,-132 1041.5,-132 1041.5,-138 1035.5,-144 1029.5,-144 1029.5,-144 922.5,-144 922.5,-144 916.5,-144 910.5,-138 910.5,-132 910.5,-132 910.5,-65 910.5,-65 910.5,-59 916.5,-53 922.5,-53"/>
<text text-anchor="middle" x="976" y="-128.8" font-family="Times,serif" font-size="14.00" fill="#000000">Rol</text>
<polyline fill="none" stroke="#000000" points="910.5,-121 1041.5,-121 "/>
<text text-anchor="start" x="918.5" y="-105.8" font-family="Times,serif" font-size="14.00" fill="#000000">id :integer</text>
<text text-anchor="start" x="918.5" y="-90.8" font-family="Times,serif" font-size="14.00" fill="#000000">descripcion :varchar</text>
<text text-anchor="start" x="918.5" y="-75.8" font-family="Times,serif" font-size="14.00" fill="#000000">created_at :datetime</text>
<text text-anchor="start" x="918.5" y="-60.8" font-family="Times,serif" font-size="14.00" fill="#000000">updated_at :datetime</text>
</g>
<!-- Comentario -->
<g id="node7" class="node">
<title>Comentario</title>
<path fill="none" stroke="#000000" d="M1071.5,-23C1071.5,-23 1178.5,-23 1178.5,-23 1184.5,-23 1190.5,-29 1190.5,-35 1190.5,-35 1190.5,-162 1190.5,-162 1190.5,-168 1184.5,-174 1178.5,-174 1178.5,-174 1071.5,-174 1071.5,-174 1065.5,-174 1059.5,-168 1059.5,-162 1059.5,-162 1059.5,-35 1059.5,-35 1059.5,-29 1065.5,-23 1071.5,-23"/>
<text text-anchor="middle" x="1125" y="-158.8" font-family="Times,serif" font-size="14.00" fill="#000000">Comentario</text>
<polyline fill="none" stroke="#000000" points="1059.5,-151 1190.5,-151 "/>
<text text-anchor="start" x="1067.5" y="-135.8" font-family="Times,serif" font-size="14.00" fill="#000000">id :integer</text>
<text text-anchor="start" x="1067.5" y="-120.8" font-family="Times,serif" font-size="14.00" fill="#000000">fecha :datetime</text>
<text text-anchor="start" x="1067.5" y="-105.8" font-family="Times,serif" font-size="14.00" fill="#000000">comentario :varchar</text>
<text text-anchor="start" x="1067.5" y="-90.8" font-family="Times,serif" font-size="14.00" fill="#000000">depactual :varchar</text>
<text text-anchor="start" x="1067.5" y="-75.8" font-family="Times,serif" font-size="14.00" fill="#000000">depanterior :varchar</text>
<text text-anchor="start" x="1067.5" y="-60.8" font-family="Times,serif" font-size="14.00" fill="#000000">pqr_id :integer</text>
<text text-anchor="start" x="1067.5" y="-45.8" font-family="Times,serif" font-size="14.00" fill="#000000">created_at :datetime</text>
<text text-anchor="start" x="1067.5" y="-30.8" font-family="Times,serif" font-size="14.00" fill="#000000">updated_at :datetime</text>
</g>
<!-- Dependencium -->
<g id="node8" class="node">
<title>Dependencium</title>
<path fill="none" stroke="#000000" d="M1220.5,-53C1220.5,-53 1327.5,-53 1327.5,-53 1333.5,-53 1339.5,-59 1339.5,-65 1339.5,-65 1339.5,-132 1339.5,-132 1339.5,-138 1333.5,-144 1327.5,-144 1327.5,-144 1220.5,-144 1220.5,-144 1214.5,-144 1208.5,-138 1208.5,-132 1208.5,-132 1208.5,-65 1208.5,-65 1208.5,-59 1214.5,-53 1220.5,-53"/>
<text text-anchor="middle" x="1274" y="-128.8" font-family="Times,serif" font-size="14.00" fill="#000000">Dependencium</text>
<polyline fill="none" stroke="#000000" points="1208.5,-121 1339.5,-121 "/>
<text text-anchor="start" x="1216.5" y="-105.8" font-family="Times,serif" font-size="14.00" fill="#000000">id :integer</text>
<text text-anchor="start" x="1216.5" y="-90.8" font-family="Times,serif" font-size="14.00" fill="#000000">descripcion :varchar</text>
<text text-anchor="start" x="1216.5" y="-75.8" font-family="Times,serif" font-size="14.00" fill="#000000">created_at :datetime</text>
<text text-anchor="start" x="1216.5" y="-60.8" font-family="Times,serif" font-size="14.00" fill="#000000">updated_at :datetime</text>
</g>
</g>
</svg>
